HIERARCHY
ROOT Hips
{
	OFFSET 0.000000 0.000000 0.000000
	CHANNELS 6 Xposition Yposition Zposition Zrotation Yrotation Xrotation 
	JOINT LowerBack
	{
		OFFSET 0.000000 0.000000 0.000000
		CHANNELS 3 Zrotation Yrotation Xrotation
		JOINT Spine
		{
			OFFSET 0.028270 2.035590 -0.193380
			CHANNELS 3 Zrotation Yrotation Xrotation
			JOINT Spine1
			{
				OFFSET 0.056720 2.048850 -0.042750
				CHANNELS 3 Zrotation Yrotation Xrotation
				JOINT Neck
				{
					OFFSET 0.000000 0.000000 0.000000
					CHANNELS 3 Zrotation Yrotation Xrotation
					JOINT Neck1
					{
						OFFSET -0.054170 1.746240 0.172020
						CHANNELS 3 Zrotation Yrotation Xrotation
						JOINT Head
						{
							OFFSET 0.104070 1.761360 -0.123970
							CHANNELS 3 Zrotation Yrotation Xrotation
							End Site
							{
								OFFSET 0.000000 0.000000 0.000000
							}
						}
					}
				}
				JOINT LeftShoulder
				{
					OFFSET 0.000000 0.000000 0.000000
					CHANNELS 3 Zrotation Yrotation Xrotation
					JOINT LeftArm
					{
						OFFSET 3.362410 1.200890 -0.311210
						CHANNELS 3 Zrotation Yrotation Xrotation
						JOINT LeftForeArm
						{
							OFFSET 4.983000 -0.000000 -0.000000
							CHANNELS 3 Zrotation Yrotation Xrotation
							JOINT LeftHand
							{
								OFFSET 3.483560 -0.000000 -0.000000
								CHANNELS 3 Zrotation Yrotation Xrotation
								JOINT LeftFingerBase
								{
									OFFSET 0.000000 0.000000 0.000000
									CHANNELS 3 Zrotation Yrotation Xrotation
									JOINT LeftHandIndex1
									{
										OFFSET 0.715260 -0.000000 -0.000000
										CHANNELS 3 Zrotation Yrotation Xrotation
										End Site
										{
											OFFSET 0.000000 0.000000 0.000000
										}
									}
								}
								JOINT LThumb
								{
									OFFSET 0.000000 0.000000 0.000000
									CHANNELS 3 Zrotation Yrotation Xrotation
									End Site
									{
										OFFSET 0.000000 0.000000 0.000000
									}
								}
							}
						}
					}
				}
				JOINT RightShoulder
				{
					OFFSET 0.000000 0.000000 0.000000
					CHANNELS 3 Zrotation Yrotation Xrotation
					JOINT RightArm
					{
						OFFSET -3.136600 1.374050 -0.404650
						CHANNELS 3 Zrotation Yrotation Xrotation
						JOINT RightForeArm
						{
							OFFSET -5.241900 -0.000000 -0.000000
							CHANNELS 3 Zrotation Yrotation Xrotation
							JOINT RightHand
							{
								OFFSET -3.444170 -0.000000 -0.000000
								CHANNELS 3 Zrotation Yrotation Xrotation
								JOINT RightFingerBase
								{
									OFFSET 0.000000 0.000000 0.000000
									CHANNELS 3 Zrotation Yrotation Xrotation
									JOINT RightHandIndex1
									{
										OFFSET -0.622530 -0.000000 -0.000000
										CHANNELS 3 Zrotation Yrotation Xrotation
										End Site
										{
											OFFSET 0.000000 0.000000 0.000000
										}
									}
								}
								JOINT RThumb
								{
									OFFSET 0.000000 0.000000 0.000000
									CHANNELS 3 Zrotation Yrotation Xrotation
									End Site
									{
										OFFSET 0.000000 0.000000 0.000000
									}
								}
							}
						}
					}
				}
			}
		}
	}
}
}
MOTION
Frames: 12
Frame Time: 0.008333
2.793832 17.452637 0.721077 26.977947 81.456445 37.981540 -6.819179 0.591996 -4.452789 -1.904096 1.034047 -4.499312 -4.557275 0.902299 -2.598923 3.603906 0.516050 -5.171502 -2.701685 -0.239763 0.637178 0.000000 0.000000 0.000000 -8.167334 3.268040 4.696431 -61.931598 13.980775 -16.080662 -3.782878 -4.510444 -0.044487 17.452436 13.365438 2.036777 -0.002075 0.149359 0.000000 0.000000 0.000000 0.000000 0.000000 0.000000 0.000000 4.316560 8.022941 -0.051685 69.059075 44.461032 39.476832 0.759228 59.663413 -0.024268 -5.083053 9.974727 -0.469847 0.074052 -0.449198 -0.000000 0.000000 0.000000 0.000000 0.000000 0.000000 0.000000 
3.011704 17.444698 0.740952 23.553432 80.423529 34.479154 -7.048305 0.990191 -4.422219 -1.911363 1.448960 -4.494354 -4.291695 1.323426 -2.512209 2.953820 0.693685 -5.381224 -2.508575 -0.223137 0.583030 0.000000 0.000000 0.000000 -8.940839 4.585214 4.605690 -61.326040 15.056454 -14.379934 -4.092472 -3.534498 -0.039661 14.321353 13.196181 1.650780 -0.030796 0.133751 0.000000 0.000000 0.000000 0.000000 0.000000 0.000000 0.000000 2.862355 8.409325 -0.031974 66.529492 47.463344 39.252074 0.676677 62.162620 -0.025481 -4.878306 9.778765 -0.442674 0.067225 -0.464770 -0.000000 0.000000 0.000000 0.000000 0.000000 0.000000 0.000000 
3.232190 17.426664 0.754138 20.062451 79.377168 30.890843 -7.092050 1.399473 -4.371767 -1.878765 1.858598 -4.482086 -4.023987 1.737930 -2.418687 2.287474 0.939553 -5.609020 -2.322862 -0.206555 0.524691 0.000000 0.000000 0.000000 -9.727482 6.034432 4.459401 -60.655910 15.789723 -11.797429 -4.426096 -2.130802 -0.033281 10.783829 12.164582 1.147676 -0.060250 0.110197 0.000000 0.000000 0.000000 0.000000 0.000000 0.000000 0.000000 1.414768 8.776109 -0.010967 63.486533 50.437551 38.406416 0.575467 64.471654 -0.027034 -4.635916 9.583056 -0.412521 0.055715 -0.480160 -0.000000 0.000000 0.000000 0.000000 0.000000 0.000000 0.000000 
3.455533 17.399488 0.761818 16.720777 78.296688 27.463635 -6.991331 1.816287 -4.321741 -1.814115 2.263858 -4.470081 -3.755607 2.146029 -2.338627 1.604273 1.244232 -5.842769 -2.144335 -0.190286 0.465821 0.000000 0.000000 0.000000 -10.525039 7.567433 4.262587 -59.978439 16.186351 -8.168633 -4.757455 -0.244046 -0.025561 7.132883 10.160039 0.637062 -0.087004 0.079776 0.000000 0.000000 0.000000 0.000000 0.000000 0.000000 0.000000 -0.038764 9.111132 -0.014842 59.978851 53.292429 36.919774 0.459545 66.534012 -0.029001 -4.363769 9.399384 -0.380689 0.039331 -0.496190 -0.000000 0.000000 0.000000 0.000000 0.000000 0.000000 0.000000 
3.681656 17.364405 0.765348 13.699830 77.190254 24.395294 -6.789146 2.212428 -4.269760 -1.724439 2.640443 -4.468264 -3.490608 2.522901 -2.314659 0.921430 1.582924 -6.086389 -1.968355 -0.174094 0.406300 0.000000 0.000000 0.000000 -11.358503 9.105950 4.049035 -59.470182 17.297802 -3.551691 -5.039873 -0.156674 -0.018634 3.822156 8.130688 0.277548 -0.107679 0.044066 -0.000000 0.000000 0.000000 0.000000 0.000000 0.000000 0.000000 -1.495865 9.437115 -0.061775 56.106186 55.949587 34.839991 0.341974 68.312698 -0.031169 -4.070228 9.239166 -0.348472 0.019422 -0.513063 -0.000000 0.000000 0.000000 0.000000 0.000000 0.000000 0.000000 
3.910258 17.322708 0.765904 11.072164 76.083780 21.790134 -6.520885 2.567512 -4.221659 -1.620819 2.970625 -4.489157 -3.249478 2.850117 -2.390657 0.265970 1.934114 -6.334781 -1.785190 -0.157456 0.348536 0.000000 0.000000 0.000000 -12.263235 10.591239 3.835344 -58.920124 20.157558 1.657353 -5.209670 -4.022380 -0.015587 1.276435 7.157200 0.087038 -0.120352 0.003316 -0.000000 0.000000 0.000000 0.000000 0.000000 0.000000 0.000000 -2.951365 9.780406 -0.165189 52.011906 58.316022 32.239774 0.233783 69.800180 -0.033205 -3.747778 9.110342 -0.315470 -0.002767 -0.530351 -0.000000 0.000000 0.000000 0.000000 0.000000 0.000000 0.000000 
4.140887 17.275716 0.764496 8.838720 75.033832 19.656569 -6.222203 2.909228 -4.216335 -1.515119 3.286651 -4.525074 -3.029104 3.160508 -2.514564 -0.366633 2.262657 -6.559833 -1.600282 -0.141054 0.298600 0.000000 0.000000 0.000000 -13.122973 12.087760 3.595032 -58.122160 22.892028 6.532263 -5.232287 -7.685216 -0.013230 -0.314276 5.790295 -0.009974 -0.123759 -0.036584 -0.000000 0.000000 0.000000 0.000000 0.000000 0.000000 0.000000 -4.403530 10.047418 -0.366140 47.777191 60.310670 29.199840 0.130793 70.989417 -0.035260 -3.411479 9.017489 -0.282894 -0.027418 -0.547483 -0.000000 0.000000 0.000000 0.000000 0.000000 0.000000 0.000000 
4.372910 17.224583 0.762034 6.927414 74.077581 17.923682 -5.920398 3.238176 -4.267485 -1.412269 3.591864 -4.574186 -2.818021 3.457923 -2.669635 -0.973223 2.540153 -6.755358 -1.411504 -0.124787 0.257768 0.000000 0.000000 0.000000 -13.846763 13.550101 3.352061 -57.231123 25.375091 10.669223 -5.148934 -10.838291 -0.010842 -1.025119 4.290511 -0.034781 -0.120537 -0.070817 -0.000000 0.000000 0.000000 0.000000 0.000000 0.000000 0.000000 -5.860954 10.231280 -0.667082 43.549482 61.876937 25.850414 0.039094 71.909311 -0.036964 -3.048911 8.960267 -0.249444 -0.053176 -0.563307 -0.000000 0.000000 0.000000 0.000000 0.000000 0.000000 0.000000 
4.605676 17.170454 0.759307 5.273999 73.241815 16.507517 -5.636991 3.553113 -4.372049 -1.316792 3.886739 -4.630834 -2.611612 3.743571 -2.834263 -1.542617 2.728461 -6.921621 -1.221159 -0.108774 0.225263 0.000000 0.000000 0.000000 -14.377986 14.897517 3.129809 -56.397941 27.614815 13.922339 -5.015719 -13.406871 -0.008218 -1.089586 2.911148 -0.025878 -0.114505 -0.097201 -0.000000 0.000000 0.000000 0.000000 0.000000 0.000000 0.000000 -7.292647 10.320043 -1.039258 39.422953 63.036482 22.351156 -0.038713 72.587354 -0.038139 -2.673063 8.932132 -0.215812 -0.078218 -0.576777 -0.000000 0.000000 0.000000 0.000000 0.000000 0.000000 0.000000 
4.838593 17.114370 0.757007 3.816017 72.546165 15.311807 -5.381946 3.850707 -4.510248 -1.230565 4.168615 -4.686273 -2.408202 4.015711 -2.986075 -2.069706 2.801050 -7.066053 -1.030493 -0.092930 0.198213 0.000000 0.000000 0.000000 -14.692567 16.077937 2.946636 -55.727154 29.634284 16.291317 -4.877261 -15.403366 -0.005522 -0.766746 1.815729 -0.011365 -0.108741 -0.115650 -0.000000 0.000000 0.000000 0.000000 0.000000 0.000000 0.000000 -8.679485 10.306037 -1.447285 35.499156 63.835819 18.852643 -0.103544 73.051972 -0.038599 -2.281839 8.921268 -0.181489 -0.101431 -0.587113 0.000000 0.000000 0.000000 0.000000 0.000000 0.000000 0.000000 
5.071095 17.057288 0.755794 2.540215 72.004958 14.280110 -5.168648 4.123806 -4.651039 -1.155211 4.431254 -4.731057 -2.206012 4.269138 -3.106603 -2.557486 2.747474 -7.199817 -0.838331 -0.076917 0.172749 0.000000 0.000000 0.000000 -14.790271 17.077115 2.814519 -55.271619 31.437387 17.866812 -4.761102 -16.870699 -0.003085 -0.277464 1.081808 -0.002045 -0.104997 -0.127189 -0.000000 0.000000 0.000000 0.000000 0.000000 0.000000 0.000000 -10.024643 10.184967 -1.859554 31.910137 64.330407 15.493514 -0.158070 73.330015 -0.038062 -1.849307 8.911495 -0.143863 -0.122652 -0.593898 0.000000 0.000000 0.000000 0.000000 0.000000 0.000000 0.000000 
5.302969 17.000233 0.755960 1.421810 71.642617 13.343296 -4.999937 4.360591 -4.758068 -1.092688 4.662208 -4.757577 -2.019412 4.491914 -3.188351 -2.982194 2.549540 -7.331091 -0.654342 -0.061318 0.145909 0.000000 0.000000 0.000000 -14.699629 17.857987 2.730817 -55.044944 33.086243 18.653146 -4.684946 -17.895979 -0.001336 0.195654 0.743562 0.002079 -0.103956 -0.133443 -0.000000 0.000000 0.000000 0.000000 0.000000 0.000000 0.000000 -11.245664 9.942057 -2.235180 28.618227 64.629960 12.369012 -0.207625 73.429308 -0.036829 -1.417442 8.883533 -0.106330 -0.140976 -0.597305 0.000000 0.000000 0.000000 0.000000 0.000000 0.000000 0.000000 
